Coordinates
version=1
nRows=9
nColumns=24
inDegrees=yes

Units are S.I. units (second, meters, Newtons, ...)
Angles are in degrees.

endheader
time	pelvis_tilt	pelvis_list	pelvis_rotation	pelvis_tx	pelvis_ty	pelvis_tz	hip_flexion_r	hip_adduction_r	hip_rotation_r	knee_angle_r	ankle_angle_r	subtalar_angle_r	mtp_angle_r	hip_flexion_l	hip_adduction_l	hip_rotation_l	knee_angle_l	ankle_angle_l	subtalar_angle_l	mtp_angle_l	lumbar_extension	lumbar_bending	lumbar_rotation
      0.55800000	      0.87744200	      4.07360509	     -6.47904542	     -0.60349504	      1.00177252	      0.34403838	     18.80735204	     -1.99007141	      6.80280767	    -11.57604594	      3.46542294	     -4.63884317	      7.82513260	    -11.90001049	      9.03257598	     -0.74640799	    -27.09957520	     -5.24613995	    -15.28872548	     23.65780788	    -11.52868338	      4.76359789	     -3.79147774
      0.56216667	      0.87944381	      3.92549511	     -6.40500607	     -0.59752144	      1.00124804	      0.34469588	     18.83889303	     -1.78299456	      6.83617721	    -12.45136751	      3.43044256	     -4.93814476	      7.86284645	    -11.52849242	      8.75487287	     -1.13926203	    -28.37793678	     -6.00382049	    -15.13249507	     23.69819382	    -11.48661581	      4.93913406	     -3.78782517
      0.56633333	      0.89430653	      3.77821951	     -6.33950004	     -0.59156400	      1.00071462	      0.34538705	     18.86575706	     -1.57280794	      6.85890391	    -13.34821272	      3.47018113	     -5.20896770	      7.88499861	    -11.14933230	      8.46748464	     -1.55006055	    -29.67887702	     -6.82367074	    -14.97691188	     23.78709262	    -11.47020117	      5.10392199	     -3.74505173
      0.57050000	      0.91937174	      3.60870030	     -6.27389632	     -0.58559945	      1.00020497	      0.34607271	     18.86838296	     -1.34145765	      6.86776334	    -14.23055385	      3.57999473	     -5.44490210	      7.89341453	    -10.76652542	      8.14871491	     -1.96082436	    -30.99854456	     -7.69530710	    -14.81028350	     23.88369043	    -11.46668709	      5.32346201	     -3.69251965
      0.57466667	      0.90193443	      3.45869667	     -6.20073468	     -0.57968803	      0.99962355	      0.34680043	     18.94145064	     -1.12054253	      6.84710950	    -15.15870953	      3.70125890	     -5.70089218	      7.88851813	    -10.30251941	      7.82630525	     -2.37620445	    -32.36542279	     -8.56536259	    -14.62118142	     24.12305257	    -11.40991339	      5.46639214	     -3.62696414
      0.57883333	      0.97195269	      3.27836747	     -6.13928044	     -0.57376575	      0.99918114	      0.34754506	     18.88708838	     -0.87746979	      6.83770916	    -16.03071075	      3.95779437	     -5.87819671	      7.88179442	     -9.93488977	      7.47450030	     -2.79277736	    -33.70901092	     -9.57136091	    -14.47721253	     24.25174024	    -11.47588631	      5.67063221	     -3.58302305
      0.58300000	      0.98197540	      3.10252332	     -6.06447477	     -0.56788157	      0.99864601	      0.34830315	     18.91596163	     -0.63358353	      6.77786446	    -16.94539202	      4.24608746	     -6.04010235	      7.26136079	     -9.47303641	      7.10099734	     -3.20964884	    -35.08580743	    -10.64145750	    -14.39129842	     28.56914013	    -11.46134130	      5.84126944	     -3.50992930
      0.58716667	      1.04201607	      2.91609403	     -6.00424146	     -0.56201180	      0.99819690	      0.34908844	     18.86341584	     -0.37781838	      6.75949207	    -17.80519211	      4.59486205	     -6.21116702	      7.25793845	     -9.05776752	      6.71498867	     -3.62998742	    -36.46313425	    -11.70598359	    -14.22906875	     28.57028215	    -11.51670835	      6.04033851	     -3.45972550
      0.59133333	      1.07262766	      2.71920699	     -5.93738963	     -0.55617341	      0.99771218	      0.34988575	     18.83628508	     -0.10865663	      6.72103587	    -18.65439678	      4.97951788	     -6.36587704	      7.24690299	     -8.59017705	      6.30355367	     -4.03467480	    -37.86761088	    -12.79809694	    -14.08889443	     28.57796762	    -11.54371123	      6.24010748	     -3.39725112
